<?xml version="1.0" standalone="no"?>
<!DOCTYPE svg PUBLIC "-//W3C//DTD SVG 20010904//EN"
 "http://www.w3.org/TR/2001/REC-SVG-20010904/DTD/svg10.dtd">
<svg version="1.0" xmlns="http://www.w3.org/2000/svg"
 width="260.000000pt" height="260.000000pt" viewBox="0 0 260.000000 260.000000"
 preserveAspectRatio="xMidYMid meet">
<metadata>
Created by potrace 1.11, written by Peter Selinger 2001-2013
</metadata>
<g transform="translate(0.000000,260.000000) scale(0.100000,-0.100000)"
fill="#000000" stroke="none">
<path d="M1101 2584 c-273 -43 -545 -185 -735 -385 -336 -353 -449 -842 -300
-1299 91 -280 274 -519 523 -685 326 -217 735 -272 1111 -149 280 91 519 274
685 523 217 326 272 735 149 1111 -91 280 -274 519 -523 685 -265 176 -592
248 -910 199z m372 -299 c211 -37 394 -133 544 -288 135 -139 214 -277 258
-451 72 -285 20 -572 -148 -821 -120 -176 -318 -321 -532 -388 -510 -159
-1067 127 -1242 638 -122 358 -27 761 242 1030 230 231 559 336 878 280z"/>
<path d="M1390 2052 l0 -80 43 -7 c133 -22 300 -120 391 -232 108 -130 156
-265 156 -438 0 -122 -16 -192 -72 -305 -33 -69 -58 -102 -127 -170 -111 -111
-200 -158 -363 -194 -28 -6 -28 -7 -28 -86 0 -57 4 -80 13 -80 45 0 196 48
272 85 317 158 496 481 464 835 -24 257 -183 506 -408 640 -81 48 -211 96
-288 106 l-53 7 0 -81z"/>
<path d="M970 2069 c-57 -25 -150 -81 -150 -90 0 -11 82 -41 90 -32 47 52 119
143 113 142 -5 0 -28 -9 -53 -20z"/>
<path d="M1146 1970 c-69 -74 -78 -90 -48 -91 9 0 41 -4 70 -8 l52 -7 0 88 c0
48 -2 88 -4 88 -2 0 -33 -32 -70 -70z"/>
<path d="M658 1833 c-14 -16 -42 -53 -62 -83 l-36 -55 22 -16 c12 -9 52 -33
90 -54 65 -35 70 -36 74 -18 3 11 21 58 39 104 19 46 33 84 32 85 -5 4 -127
64 -130 64 -2 0 -15 -12 -29 -27z"/>
<path d="M1390 1724 c0 -53 4 -84 11 -84 5 0 35 -12 65 -27 67 -33 127 -96
162 -171 23 -49 27 -70 27 -147 0 -77 -4 -98 -27 -148 -35 -74 -111 -148 -182
-178 l-56 -23 0 -79 0 -79 38 7 c20 4 66 20 102 37 80 38 195 149 234 225 77
153 75 333 -7 487 -62 117 -202 227 -324 254 l-43 10 0 -84z"/>
<path d="M956 1703 c-10 -21 -29 -68 -42 -105 l-23 -68 53 -15 c62 -18 210
-45 249 -45 l27 0 0 114 0 115 -57 6 c-32 4 -86 13 -121 21 -35 8 -64 14 -66
14 -1 0 -10 -17 -20 -37z"/>
<path d="M495 1530 c-2 -4 -11 -47 -20 -96 l-16 -89 31 -26 c34 -29 169 -108
197 -115 17 -5 18 4 18 110 l0 116 -27 11 c-15 6 -61 30 -103 54 -41 24 -77
40 -80 35z"/>
<path d="M1390 1295 l0 -176 29 20 c63 45 92 131 72 208 -12 44 -50 96 -82
114 -18 9 -19 3 -19 -166z"/>
<path d="M864 1343 c-6 -23 3 -157 13 -200 4 -18 19 -25 91 -42 68 -15 221
-41 248 -41 2 0 4 56 4 124 l0 123 -83 6 c-46 4 -125 17 -175 30 l-93 23 -5
-23z"/>
<path d="M480 1117 c0 -20 54 -166 77 -209 23 -41 34 -50 115 -88 97 -45 168
-72 168 -64 0 3 -10 24 -22 47 -11 23 -33 76 -48 117 l-28 75 -131 65 c-72 36
-131 62 -131 57z"/>
<path d="M940 934 c0 -15 64 -132 103 -186 28 -41 46 -58 62 -58 12 0 43 -3
69 -6 l46 -7 0 110 0 111 -67 6 c-66 7 -159 22 -195 32 -10 3 -18 2 -18 -2z"/>
<path d="M915 551 c6 -5 35 -19 65 -31 l55 -21 -25 24 c-14 14 -43 28 -65 32
-27 4 -37 3 -30 -4z"/>
</g>
</svg>
